Scion (#10.16)  aired 3/4/2011

Lionel and Tess go head to head in a battle for the Luthor name. Clark and Lois are stunned by Tess' latest present to them.

General
Complete name                    : Smallville S10E16 HDTV_JHW.mp4
Format                           : MPEG-4
Format profile                   : Base Media / Version 2
Codec ID                         : mp42
File size                        : 326 MiB
Duration                         : 41mn 35s
Overall bit rate                 : 1 094 Kbps
Encoded date                     : UTC 2011-03-04 02:58:16
Tagged date                      : UTC 2011-03-04 02:58:16
Writing library                  : AVS 

Video
ID                               : 1
Format                           : AVC
Format/Info                      : Advanced Video Codec
Format profile                   : Main@L5.1
Format settings, CABAC           : Yes
Format settings, ReFrames        : 2 frames
Format settings, GOP             : M=1, N=2
Codec ID                         : avc1
Codec ID/Info                    : Advanced Video Coding
Duration                         : 41mn 35s
Bit rate mode                    : Variable
Bit rate                         : 992 Kbps
Width                            : 720 pixels
Height                           : 400 pixels
Display aspect ratio             : 16:9
Frame rate mode                  : Constant
Frame rate                       : 29.970 fps
Color space                      : YUV
Chroma subsampling               : 4:2:0
Bit depth                        : 8 bits
Scan type                        : Progressive
Bits/(Pixel*Frame)               : 0.115
Stream size                      : 295 MiB (91%)
Language                         : English
Encoded date                     : UTC 2011-03-04 02:58:16
Tagged date                      : UTC 2011-03-04 02:58:16

Audio
ID                               : 2
Format                           : AAC
Format/Info                      : Advanced Audio Codec
Format profile                   : LC
Codec ID                         : 40
Duration                         : 41mn 35s
Bit rate mode                    : Constant
Bit rate                         : 96.0 Kbps
Channel(s)                       : 2 channels
Channel positions                : Front: L R
Sampling rate                    : 48.0 KHz
Compression mode                 : Lossy
Stream size                      : 27.8 MiB (9%)
Language                         : English
Encoded date                     : UTC 2011-03-04 02:58:16
Tagged date                      : UTC 2011-03-04 02:58:16

[img]http://img831.imageshack.us/img831/1976/vlcsnap2011030421h59m56.png[/img]

[img]http://img543.imageshack.us/img543/3262/vlcsnap2011030422h00m19.png[/img]

[img]http://img801.imageshack.us/img801/6002/vlcsnap2011030422h01m17.png[/img]

[img]http://img69.imageshack.us/img69/1683/vlcsnap2011030422h01m34.png[/img]

[img]http://img87.imageshack.us/img87/5034/vlcsnap2011030422h01m42.png[/img]

[img]http://img638.imageshack.us/img638/6984/vlcsnap2011030422h01m44.png[/img]

[img]http://img837.imageshack.us/img837/4994/vlcsnap2011030422h02m59.png[/img]